<svg xmlns="http://www.w3.org/2000/svg" width="402.467" height="447.467" viewBox="-1.233 -1.233 402.467 447.467"><g data-name="Rounded Rectangle 2"><path d="M6 1h390a5 5 0 0 1 5 5v435a5 5 0 0 1-5 5H36c-19.33 0-35-15.67-35-35V6a5 5 0 0 1 5-5Z" fill="rgba(255, 255, 255, 1)" fill-rule="evenodd"/><path d="M6 1h390a5 5 0 0 1 5 5v435a5 5 0 0 1-5 5H36c-19.33 0-35-15.67-35-35V6a5 5 0 0 1 5-5Z" stroke-linejoin="round" stroke-linecap="round" stroke="rgba(194, 194, 194, 1)" fill="transparent" transform="matrix(1.0025 0 0 1.00225 -.502 -.502)"/></g></svg>